<?xml version="1.0" encoding="utf-8"?>
<!-- Generator: Adobe Illustrator 22.0.0, SVG Export Plug-In . SVG Version: 6.00 Build 0)  -->
<svg version="1.1" id="Camada_1" xmlns="http://www.w3.org/2000/svg" xmlns:xlink="http://www.w3.org/1999/xlink" x="0px" y="0px"
	 viewBox="0 0 372 123" style="enable-background:new 0 0 372 123;" xml:space="preserve">
<style type="text/css">
	.st0{fill:#FFF;}
	.st1{fill:#FFF;}
	.st2{fill-rule:evenodd;clip-rule:evenodd;fill:#FFF;}
</style>
<path class="st0" d="M232.5,21.8v26.1h6.3c4.5,0,8.6-0.8,12.3-2.4c3.7-1.6,5.6-5.3,5.6-11.2c0-4.1-1.2-7.2-3.7-9.3
	c-2.5-2.1-6.1-3.2-10.7-3.2H232.5z M260.5,93.6c-1.1-6.6-3.3-11.2-6.6-13.8c-2.1-1.6-4.5-2.8-7.2-3.6c-1.6-0.5-3.3-0.8-5.2-1
	c-0.7-0.1-1.5-0.1-2.5-0.1c-1,0-1.8,0.1-2.5,0.3l-0.1,0.1v18.7c0,1.8-0.2,3.3-0.5,4.4c-0.3,1.1-1.3,2-2.8,2.8
	c-1.5,0.7-3.9,1.1-7.1,1.1h-0.2h-13.4c-0.2,0-0.5,0-0.7,0h0h0c-0.9,0-1.7,0-2.4-0.2h-1.6c-1.5,0-2.7-0.5-3.9-1.5
	c-1.1-1-1.7-2.3-1.7-3.7V43.4l-23.5,29.8c-1.9,2.6-4.4,3.9-7.4,3.9c-1.5,0-2.8-0.3-4.2-0.9c-1.3-0.6-2.4-1.5-3.1-2.6l-24.1-30.2
	l0.1,53.7c0,1.5-0.5,2.7-1.5,3.7c-1,1-2.2,1.5-3.6,1.5h-19.7c-1.5,0-2.7-0.5-3.7-1.6c-1-1.1-1.5-2.3-1.5-3.6V5.3
	c0-1.4,0.5-2.6,1.5-3.6c1-1,2.3-1.5,3.7-1.5h22.6c1,0,2,0.2,3.1,0.7c1.1,0.4,1.8,0.9,2.2,1.4L170.3,32l28.5-29.6
	c1.2-1.1,2.5-1.7,3.9-1.9c1.4-0.2,3.1-0.3,5-0.3h0.8c0.6-0.1,1.1-0.1,1.7-0.1h33.1c8.6-0.1,16,0.8,21.9,2.5l0,0
	c-0.9,1.1-1.3,2.2-1.3,3.5c0,1.1,0.3,2,0.9,2.9l22.3,28.7c-0.5,5.6-2,10.1-4.4,13.4c-2.5,3.3-5.8,6.4-9.9,9.2l0.1,0.1
	c1.1,0.6,2.2,1.2,3.3,1.9l0,0l0,0c3.3,2.2,6,4.9,8.2,8.2c2.8,4.4,4.7,8.9,5.8,13.7c1,4.8,1.4,9,1.2,12.8c0,1.7-0.6,3-1.7,3.9
	c-1.2,1-2.8,1.5-5,1.5h0h0h-17.7h-0.1l0,0c-2.5,0-4.2-0.6-4.9-1.9c-0.7-1.3-1.1-2.6-1.2-4C260.7,95.2,260.6,94.2,260.5,93.6z"/>
<path class="st1" d="M285.4,68.5l14.2-19.3L268.1,8.6c-0.6-0.9-0.9-1.8-0.9-2.9c0-1.3,0.4-2.4,1.3-3.5c0.9-1.1,1.9-1.6,3.1-1.6h28.9
	c1.4,0,2.6,0.6,3.6,1.9l14.6,20.1l14.9-20.1c0.4-0.6,0.9-1,1.5-1.4c0.6-0.3,1.3-0.5,2.1-0.5h28.6c1.3,0,2.4,0.5,3.3,1.5
	c0.9,1,1.4,2.2,1.4,3.6c0,1.2-0.3,2.1-1,2.9l-32.8,40.4l34.6,45.1c0.6,0.9,0.9,1.8,0.9,2.8c0,1.3-0.4,2.4-1.3,3.4
	c-0.9,1-2,1.5-3.4,1.5h-31.2c-0.8,0-1.5-0.2-2.3-0.7c-0.7-0.5-1.3-1.1-1.8-1.8l-13.4-19l-13.1,19c-1.5,1.7-2.7,2.5-3.6,2.5h-11.2
	c0.6-0.2,1-0.5,1.5-0.9c1.2-1,1.7-2.3,1.7-3.9c0.2-3.8-0.2-8-1.2-12.8c-1-4.7-2.9-9.3-5.7-13.6C286.5,69.9,286,69.2,285.4,68.5"/>
<path class="st1" d="M215.4,122.9c-0.5,0-1,0-1.4,0c-0.4,0-0.7-0.1-1-0.2c-0.3-0.1-0.5-0.4-0.8-0.7c-0.2-0.3-0.5-0.8-0.7-1.5
	c-0.5-1.2-1-2.6-1.6-4.1c-0.5-1.5-0.9-2.6-1.2-3.5c-0.3-0.8-0.4-1.3-0.4-1.3c0,0,0.1,0,0.3-0.1c0.2-0.1,0.4-0.1,0.6-0.2
	c0.2,0,0.5-0.1,0.8-0.1c0.3,0,0.6,0,0.8,0.1c0.3,0.1,0.5,0.3,0.8,0.5c0.3,0.3,0.5,0.6,0.7,1c0.5,1.3,1.1,3.3,2,6
	c1-3.1,1.8-5.2,2.1-6.3c0.2-0.4,0.4-0.8,0.7-1c0.3-0.3,0.5-0.4,0.8-0.5c0.3-0.1,0.5-0.1,0.8-0.1c0.3,0,0.5,0,0.7,0.1
	c0.2,0.1,0.4,0.1,0.6,0.2c0.2,0.1,0.3,0.1,0.3,0.1c-0.3,0.7-0.6,1.6-0.9,2.6c0.4,1.1,0.9,2.8,1.7,5c1-3.1,1.8-5.2,2.1-6.3
	c0.2-0.4,0.4-0.8,0.7-1c0.3-0.3,0.5-0.4,0.8-0.5c0.3-0.1,0.5-0.1,0.8-0.1c0.3,0,0.5,0,0.7,0.1c0.2,0.1,0.4,0.1,0.6,0.2
	c0.2,0.1,0.3,0.1,0.3,0.1c-1.3,3.8-2.6,7.2-3.7,9.9c0,0.1-0.1,0.1-0.1,0.2c-0.1,0.3-0.2,0.5-0.3,0.6c-0.1,0.1-0.1,0.3-0.2,0.4
	c-0.1,0.1-0.2,0.2-0.3,0.3c-0.1,0-0.3,0.1-0.5,0.1c-0.5,0-1,0-1.4,0c-0.4,0-0.7-0.1-1-0.2c-0.3-0.1-0.5-0.4-0.8-0.7
	c-0.2-0.3-0.5-0.8-0.7-1.5c-0.2-0.6-0.4-1.1-0.6-1.6c-0.4,0.9-0.7,1.7-1,2.4c0,0.1-0.1,0.1-0.1,0.2c-0.1,0.3-0.2,0.5-0.3,0.6
	c-0.1,0.1-0.1,0.3-0.2,0.4c-0.1,0.1-0.2,0.2-0.3,0.3C215.8,122.8,215.6,122.9,215.4,122.9"/>
<path class="st1" d="M240,118.8c0,0.4,0.2,0.8,0.7,1c0.4,0.2,1,0.3,1.7,0.3c0.7,0,1.3,0,2-0.1c0.6-0.1,1.3-0.1,1.8-0.2
	c0.6-0.1,0.9-0.1,1-0.1c0.1,1.2-0.2,2.1-0.7,2.6c-0.5,0.5-1.6,0.8-3.3,0.8c-2.3,0-3.9-0.5-5-1.4c-1.1-0.9-1.6-2.5-1.6-4.8
	c0-1.1,0.1-2.1,0.4-2.9c0.3-0.8,0.7-1.4,1.3-1.8c0.6-0.4,1.2-0.7,1.9-0.9s1.5-0.3,2.4-0.3c1.8,0,3,0.4,3.9,1.1
	c0.8,0.7,1.2,1.9,1.2,3.6c0,0.6-0.1,1.1-0.4,1.5c-0.2,0.4-0.6,0.6-0.9,0.8c-0.4,0.1-0.9,0.2-1.4,0.3c-0.5,0.1-1.1,0.1-1.6,0.1
	c-0.5,0-1.1,0-1.7,0.1C241,118.5,240.4,118.6,240,118.8 M239.9,116.6c0.2-0.2,0.6-0.3,1.2-0.3c0.5-0.1,1.1-0.1,1.5-0.1
	c0.5,0,0.9-0.1,1.3-0.3c0.4-0.2,0.5-0.5,0.5-0.9c0-0.4-0.3-0.7-0.9-0.9c-0.8-0.3-1.6-0.4-2.4-0.1
	C240.1,114.3,239.7,115.2,239.9,116.6z"/>
<path class="st1" d="M261.7,111l-1.3,1.5c0.3-0.1,0.5-0.2,0.8-0.4c0.2-0.2,0.4-0.3,0.6-0.5c0.1-0.1,0.4-0.2,0.8-0.3
	c0.4-0.1,0.9-0.1,1.5-0.1c0.6,0,1.1,0.1,1.6,0.2c0.5,0.1,1,0.3,1.5,0.6c0.5,0.3,1,0.6,1.3,1.1c0.4,0.4,0.7,1,0.9,1.6
	c0.2,0.7,0.3,1.4,0.3,2.3c0,2.2-0.5,3.8-1.4,4.7c-0.9,0.9-2.5,1.4-4.7,1.4c-0.7,0-1.3,0-1.9-0.1c-0.6-0.1-1-0.1-1.3-0.2
	c-0.3-0.1-0.6-0.2-0.9-0.4c-0.3-0.1-0.5-0.3-0.6-0.4c-0.1-0.1-0.2-0.2-0.3-0.4c-0.1-0.1-0.2-0.2-0.2-0.2v-12.5c0-0.6,0.1-1,0.2-1.3
	c0.1-0.3,0.3-0.5,0.6-0.6c0.2-0.1,0.5-0.1,0.8-0.1c0.3,0,0.6,0,0.9-0.1c0.3,0,0.6-0.1,0.8-0.3V111z M261.7,117.1c0,1.9,0,2.8,0,2.8
	c0,0,0,0,0,0c0.1,0,0.2,0.1,0.4,0.1c0.1,0,0.4,0.1,0.7,0.1c0.3,0,0.7,0,0.9,0c0.3,0,0.6-0.1,1-0.2c0.4-0.1,0.7-0.3,0.9-0.5
	c0.2-0.2,0.5-0.5,0.6-0.9c0.2-0.4,0.3-0.9,0.3-1.4c0-0.6-0.1-1.1-0.2-1.5c-0.1-0.4-0.3-0.7-0.6-1s-0.5-0.4-0.8-0.6
	c-0.3-0.1-0.6-0.2-0.9-0.3c-0.3,0-0.6,0-0.9,0c-0.3,0-0.6,0.1-0.8,0.1c-0.2,0-0.4,0.1-0.6,0.1V117.1z"/>
<path class="st1" d="M296.1,114.1c-0.4,0-1-0.1-1.7-0.1c-0.7-0.1-1.2-0.1-1.5-0.1c-0.3,0-0.8,0-1.6,0.1c-0.2,0-0.3,0-0.5,0.1
	c-0.5,0.2-0.8,0.4-0.7,0.7c0,0.2,0.2,0.3,0.4,0.4c0.7,0.1,1.4,0.3,2,0.4c0.6,0.2,1.1,0.3,1.5,0.5c0.4,0.2,0.8,0.4,1.1,0.6
	c0.3,0.2,0.6,0.4,0.8,0.6c0.2,0.2,0.4,0.4,0.5,0.6c0.1,0.2,0.2,0.4,0.3,0.6c0,0.2,0.1,0.4,0.1,0.5c0,0.2,0.1,0.3,0,0.4
	c0,0.1,0,0.2,0,0.2v0c0,1.2-0.5,2.1-1.5,2.6c-1,0.5-2.6,0.8-4.7,0.8c-0.6,0-1.1-0.1-1.5-0.2c-0.4-0.1-0.7-0.3-1-0.4
	c-0.2-0.2-0.4-0.4-0.6-0.6c-0.1-0.2-0.2-0.4-0.3-0.6c0-0.2-0.1-0.4-0.1-0.6c0-0.2,0-0.3,0-0.4c0-0.1,0-0.1,0-0.2
	c0.4,0,1,0.1,1.7,0.1c0.7,0.1,1.2,0.1,1.5,0.1c0.3,0,0.8,0,1.6-0.1c0.4,0,0.8-0.1,1-0.2c0.3-0.1,0.4-0.2,0.4-0.4
	c0-0.1,0-0.3-0.1-0.4c-0.1-0.1-0.2-0.2-0.4-0.4c-0.2-0.1-0.4-0.2-0.6-0.2c-0.4-0.1-0.8-0.2-1.4-0.3c-0.6-0.1-1-0.2-1.4-0.3
	c-0.4-0.1-0.8-0.2-1.2-0.4c-0.4-0.2-0.8-0.4-1-0.6c-0.3-0.2-0.5-0.6-0.7-1c-0.2-0.4-0.3-0.9-0.3-1.5c0,0,0-0.1,0-0.1
	c0-1.2,0.5-2.1,1.5-2.6c1-0.5,2.6-0.8,4.7-0.8c0.6,0,1.1,0.1,1.5,0.2c0.4,0.1,0.7,0.3,1,0.4c0.2,0.2,0.4,0.4,0.6,0.6
	c0.1,0.2,0.2,0.4,0.3,0.6c0,0.2,0.1,0.4,0.1,0.6c0,0.2,0,0.3,0,0.4C296.1,114,296.1,114.1,296.1,114.1"/>
<path class="st1" d="M310.9,113.2c0-0.7-0.1-1.2-0.3-1.5c-0.2-0.3-0.5-0.5-0.8-0.5c-0.3,0-0.6,0-1.1-0.1c-0.4,0-0.8-0.1-1-0.3v12
	c1,0.1,1.8,0,2.4-0.3c0.6-0.3,0.8-0.8,0.8-1.7V113.2z M308.1,109.9c-0.3-0.3-0.5-0.7-0.5-1.2c0-0.5,0.2-0.9,0.5-1.2
	c0.3-0.3,0.7-0.5,1.2-0.5s0.9,0.2,1.2,0.5c0.3,0.3,0.5,0.7,0.5,1.2c0,0.5-0.2,0.9-0.5,1.2c-0.3,0.3-0.7,0.5-1.2,0.5
	S308.4,110.2,308.1,109.9z"/>
<path class="st1" d="M328.4,120.1c0.2,0.6,0.2,1.2,0.1,1.7c-0.1,0.5-0.4,0.9-0.7,1c-0.7,0.2-1.5,0.3-2.2,0.2
	c-0.7-0.1-1.3-0.3-1.9-0.6c-0.5-0.3-1-0.7-1.3-1.3c-0.3-0.6-0.5-1.2-0.5-1.9v-9.1c0-0.4,0.1-0.8,0.2-1.1c0.2-0.3,0.4-0.5,0.7-0.6
	c0.3-0.1,0.6-0.2,1-0.2c0.4,0,0.8,0,1.3,0v3.1h3.6c0,0,0,0.1,0,0.2c0,0.1,0,0.2,0,0.4c0,0.2-0.1,0.4-0.1,0.6
	c-0.1,0.2-0.2,0.4-0.3,0.6c-0.1,0.2-0.3,0.4-0.5,0.6c-0.2,0.2-0.4,0.3-0.7,0.4c-0.3,0.1-0.7,0.2-1,0.2c-0.3,0-0.7,0-0.9,0l0,4.9
	c0,0.4,0.1,0.7,0.2,0.9c0.2,0.2,0.4,0.3,0.7,0.4c0.3,0,0.6,0,0.9,0c0.3,0,0.6-0.1,0.9-0.1C328.1,120.1,328.3,120.1,328.4,120.1"/>
<path class="st1" d="M341.5,118.8c0,0.4,0.2,0.8,0.7,1c0.4,0.2,1,0.3,1.7,0.3c0.7,0,1.3,0,2-0.1c0.6-0.1,1.3-0.1,1.8-0.2
	c0.6-0.1,0.9-0.1,1-0.1c0.1,1.2-0.2,2.1-0.7,2.6c-0.5,0.5-1.6,0.8-3.3,0.8c-2.3,0-3.9-0.5-5-1.4c-1.1-0.9-1.6-2.5-1.6-4.8
	c0-1.1,0.1-2.1,0.4-2.9c0.3-0.8,0.7-1.4,1.3-1.8c0.6-0.4,1.2-0.7,1.9-0.9c0.7-0.2,1.5-0.3,2.4-0.3c1.8,0,3,0.4,3.9,1.1
	c0.8,0.7,1.2,1.9,1.2,3.6c0,0.6-0.1,1.1-0.4,1.5c-0.2,0.4-0.6,0.6-0.9,0.8c-0.4,0.1-0.9,0.2-1.4,0.3c-0.5,0.1-1.1,0.1-1.6,0.1
	c-0.5,0-1.1,0-1.7,0.1C342.5,118.5,342,118.6,341.5,118.8 M341.4,116.6c0.2-0.2,0.6-0.3,1.2-0.3c0.5-0.1,1.1-0.1,1.5-0.1
	c0.5,0,0.9-0.1,1.3-0.3c0.4-0.2,0.5-0.5,0.5-0.9c0-0.4-0.3-0.7-0.9-0.9c-0.8-0.3-1.6-0.4-2.4-0.1
	C341.6,114.3,341.2,115.2,341.4,116.6z"/>
<path class="st1" d="M369.3,114.1c-0.4,0-1-0.1-1.7-0.1c-0.7-0.1-1.2-0.1-1.5-0.1c-0.3,0-0.8,0-1.6,0.1c-0.2,0-0.3,0-0.5,0.1
	c-0.5,0.2-0.8,0.4-0.7,0.7c0,0.2,0.2,0.3,0.4,0.4c0.7,0.1,1.4,0.3,2,0.4c0.6,0.2,1.1,0.3,1.5,0.5c0.4,0.2,0.8,0.4,1.1,0.6
	c0.3,0.2,0.6,0.4,0.8,0.6c0.2,0.2,0.4,0.4,0.5,0.6c0.1,0.2,0.2,0.4,0.3,0.6c0,0.2,0.1,0.4,0.1,0.5c0,0.2,0.1,0.3,0,0.4
	c0,0.1,0,0.2,0,0.2v0c0,1.2-0.5,2.1-1.5,2.6c-1,0.5-2.6,0.8-4.7,0.8c-0.6,0-1.1-0.1-1.5-0.2c-0.4-0.1-0.7-0.3-1-0.4
	c-0.2-0.2-0.4-0.4-0.6-0.6c-0.1-0.2-0.2-0.4-0.3-0.6c0-0.2-0.1-0.4-0.1-0.6c0-0.2,0-0.3,0-0.4c0-0.1,0-0.1,0-0.2
	c0.4,0,1,0.1,1.7,0.1c0.7,0.1,1.2,0.1,1.5,0.1c0.3,0,0.8,0,1.6-0.1c0.4,0,0.8-0.1,1-0.2c0.3-0.1,0.4-0.2,0.4-0.4
	c0-0.1,0-0.3-0.1-0.4c-0.1-0.1-0.2-0.2-0.4-0.4c-0.2-0.1-0.4-0.2-0.6-0.2c-0.4-0.1-0.8-0.2-1.4-0.3c-0.6-0.1-1-0.2-1.4-0.3
	c-0.4-0.1-0.8-0.2-1.2-0.4c-0.4-0.2-0.8-0.4-1-0.6s-0.5-0.6-0.7-1c-0.2-0.4-0.3-0.9-0.3-1.5c0,0,0-0.1,0-0.1c0-1.2,0.5-2.1,1.5-2.6
	c1-0.5,2.6-0.8,4.7-0.8c0.6,0,1.1,0.1,1.5,0.2c0.4,0.1,0.7,0.3,1,0.4c0.2,0.2,0.4,0.4,0.6,0.6c0.1,0.2,0.2,0.4,0.3,0.6
	c0,0.2,0.1,0.4,0.1,0.6c0,0.2,0,0.3,0,0.4C369.3,114,369.3,114.1,369.3,114.1"/>
<path class="st2" d="M60.2,49.7l34.1,12l-47.2-12l46.7-28.5L60.2,49.7z M44.4,53.4l-34.1-12l47.2,12L10.8,82L44.4,53.4z M5.1,0h92.2
	c2.8,0,5.1,2.3,5.1,5.1v92.2c0,2.8-2.3,5.1-5.1,5.1H5.1c-2.8,0-5.1-2.3-5.1-5.1V5.1C0,2.3,2.3,0,5.1,0z"/>
</svg>
